<svg width="1280" height="720" viewBox="0 0 1280 720" fill="none" xmlns="http://www.w3.org/2000/svg" role="img" aria-labelledby="title desc">
  <title id="title">Product Plate dashboard preview</title>
  <desc id="desc">A preview of Product Plate dashboard routes including overview cards, revenue chart, assistant, settings, and billing areas.</desc>
  <defs>
    <linearGradient id="bg" x1="0" y1="0" x2="1" y2="1">
      <stop offset="0" stop-color="#f8f7f3"/>
      <stop offset="1" stop-color="#ede9df"/>
    </linearGradient>
    <filter id="shadow" x="-20%" y="-20%" width="140%" height="150%">
      <feDropShadow dx="0" dy="22" stdDeviation="26" flood-color="#181817" flood-opacity="0.13"/>
    </filter>
  </defs>
  <rect width="1280" height="720" fill="url(#bg)"/>
  <g transform="translate(70 52)" filter="url(#shadow)">
    <rect width="1140" height="616" rx="28" fill="#fbfaf7" stroke="#d7d2c7"/>
    <rect width="1140" height="56" rx="28" fill="#fbfaf7"/>
    <path d="M0 56h1140" stroke="#d7d2c7"/>
    <circle cx="30" cy="28" r="6" fill="#d8d3c7"/>
    <circle cx="49" cy="28" r="6" fill="#d8d3c7"/>
    <circle cx="68" cy="28" r="6" fill="#d8d3c7"/>
    <text x="485" y="34" text-anchor="middle" font-family="Inter, ui-sans-serif, system-ui, -apple-system, BlinkMacSystemFont, Segoe UI, sans-serif" font-size="13" fill="#6b665c">productplate.pages.dev/dashboard</text>
    <rect x="0" y="57" width="220" height="559" rx="0" fill="#f5f2eb"/>
    <path d="M220 57v559" stroke="#d7d2c7"/>

    <g transform="translate(28 86)">
      <rect width="34" height="34" rx="9" fill="#181817"/>
      <rect x="8" y="8" width="15" height="15" rx="4" fill="#fbfaf7"/>
      <rect x="16" y="16" width="13" height="13" rx="4" fill="#fbfaf7" stroke="#181817" stroke-width="2.5"/>
      <text x="48" y="24" font-family="Inter, ui-sans-serif, system-ui, -apple-system, BlinkMacSystemFont, Segoe UI, sans-serif" font-size="16" font-weight="800" fill="#181817">Plate Inc.</text>
    </g>

    <g font-family="Inter, ui-sans-serif, system-ui, -apple-system, BlinkMacSystemFont, Segoe UI, sans-serif" font-size="14">
      <rect x="24" y="154" width="172" height="42" rx="12" fill="#e8e4da"/>
      <text x="69" y="181" fill="#181817" font-weight="700">Overview</text>
      <text x="69" y="231" fill="#6b665c">Customers</text>
      <text x="69" y="281" fill="#6b665c">Assistant</text>
      <text x="69" y="331" fill="#6b665c">Billing</text>
      <text x="69" y="381" fill="#6b665c">Settings</text>
    </g>

    <g transform="translate(258 94)">
      <text x="0" y="30" font-family="Inter, ui-sans-serif, system-ui, -apple-system, BlinkMacSystemFont, Segoe UI, sans-serif" font-size="32" font-weight="850" letter-spacing="-1" fill="#181817">Overview</text>
      <text x="0" y="58" font-family="Inter, ui-sans-serif, system-ui, -apple-system, BlinkMacSystemFont, Segoe UI, sans-serif" font-size="15" fill="#777269">Realtime SaaS dashboard surfaces, ready to adapt.</text>
      <rect x="735" y="8" width="90" height="34" rx="17" fill="#e8e4da"/>
      <text x="764" y="30" font-family="Inter, ui-sans-serif, system-ui, -apple-system, BlinkMacSystemFont, Segoe UI, sans-serif" font-size="14" font-weight="750" fill="#181817">Live</text>
    </g>

    <g transform="translate(258 182)">
      <rect width="250" height="118" rx="16" fill="#fbfaf7" stroke="#d7d2c7"/>
      <text x="24" y="34" font-family="Inter, ui-sans-serif, system-ui, -apple-system, BlinkMacSystemFont, Segoe UI, sans-serif" font-size="14" fill="#777269">Active customers</text>
      <text x="24" y="76" font-family="Inter, ui-sans-serif, system-ui, -apple-system, BlinkMacSystemFont, Segoe UI, sans-serif" font-size="36" font-weight="850" fill="#181817">1,429</text>
      <text x="24" y="101" font-family="Inter, ui-sans-serif, system-ui, -apple-system, BlinkMacSystemFont, Segoe UI, sans-serif" font-size="13" fill="#5f7a50">+12.5% this month</text>
    </g>
    <g transform="translate(528 182)">
      <rect width="250" height="118" rx="16" fill="#fbfaf7" stroke="#d7d2c7"/>
      <text x="24" y="34" font-family="Inter, ui-sans-serif, system-ui, -apple-system, BlinkMacSystemFont, Segoe UI, sans-serif" font-size="14" fill="#777269">Monthly revenue</text>
      <text x="24" y="76" font-family="Inter, ui-sans-serif, system-ui, -apple-system, BlinkMacSystemFont, Segoe UI, sans-serif" font-size="36" font-weight="850" fill="#181817">$24.8k</text>
      <text x="24" y="101" font-family="Inter, ui-sans-serif, system-ui, -apple-system, BlinkMacSystemFont, Segoe UI, sans-serif" font-size="13" fill="#777269">83% of target</text>
    </g>
    <g transform="translate(798 182)">
      <rect width="250" height="118" rx="16" fill="#fbfaf7" stroke="#d7d2c7"/>
      <text x="24" y="34" font-family="Inter, ui-sans-serif, system-ui, -apple-system, BlinkMacSystemFont, Segoe UI, sans-serif" font-size="14" fill="#777269">Open tasks</text>
      <text x="24" y="76" font-family="Inter, ui-sans-serif, system-ui, -apple-system, BlinkMacSystemFont, Segoe UI, sans-serif" font-size="36" font-weight="850" fill="#181817">18</text>
      <text x="24" y="101" font-family="Inter, ui-sans-serif, system-ui, -apple-system, BlinkMacSystemFont, Segoe UI, sans-serif" font-size="13" fill="#777269">6 ready for review</text>
    </g>

    <g transform="translate(258 324)">
      <rect width="520" height="236" rx="18" fill="#fbfaf7" stroke="#d7d2c7"/>
      <text x="24" y="38" font-family="Inter, ui-sans-serif, system-ui, -apple-system, BlinkMacSystemFont, Segoe UI, sans-serif" font-size="17" font-weight="800" fill="#181817">Growth</text>
      <text x="408" y="38" font-family="Inter, ui-sans-serif, system-ui, -apple-system, BlinkMacSystemFont, Segoe UI, sans-serif" font-size="13" fill="#777269">Last 8 weeks</text>
      <path d="M42 178 C91 124, 124 161, 164 123 C214 75, 264 139, 304 93 C359 28, 399 98, 478 55" stroke="#181817" stroke-width="5" stroke-linecap="round" fill="none"/>
      <g fill="#494842">
        <rect x="42" y="151" width="35" height="51" rx="7"/>
        <rect x="94" y="131" width="35" height="71" rx="7"/>
        <rect x="146" y="139" width="35" height="63" rx="7"/>
        <rect x="198" y="105" width="35" height="97" rx="7"/>
        <rect x="250" y="121" width="35" height="81" rx="7"/>
        <rect x="302" y="88" width="35" height="114" rx="7"/>
        <rect x="354" y="98" width="35" height="104" rx="7"/>
        <rect x="406" y="67" width="35" height="135" rx="7"/>
      </g>
    </g>

    <g transform="translate(798 324)">
      <rect width="250" height="236" rx="18" fill="#fbfaf7" stroke="#d7d2c7"/>
      <text x="24" y="38" font-family="Inter, ui-sans-serif, system-ui, -apple-system, BlinkMacSystemFont, Segoe UI, sans-serif" font-size="17" font-weight="800" fill="#181817">Assistant</text>
      <rect x="24" y="58" width="180" height="38" rx="13" fill="#f0ede4"/>
      <text x="42" y="82" font-family="Inter, ui-sans-serif, system-ui, -apple-system, BlinkMacSystemFont, Segoe UI, sans-serif" font-size="13" fill="#5f5b52">Summarize this account.</text>
      <rect x="44" y="112" width="182" height="70" rx="13" fill="#181817"/>
      <text x="62" y="138" font-family="Inter, ui-sans-serif, system-ui, -apple-system, BlinkMacSystemFont, Segoe UI, sans-serif" font-size="13" fill="#fbfaf7">This customer is active</text>
      <text x="62" y="160" font-family="Inter, ui-sans-serif, system-ui, -apple-system, BlinkMacSystemFont, Segoe UI, sans-serif" font-size="13" fill="#fbfaf7">and likely to upgrade.</text>
      <rect x="24" y="198" width="202" height="18" rx="9" fill="#e8e4da"/>
    </g>
  </g>
</svg>
